M48
; DRILL file {KiCad 6.0.7-1.fc36} date Sun 21 Aug 2022 12:52:59 BST
; FORMAT={-:-/ absolute / inch / decimal}
; #@! TF.CreationDate,2022-08-21T12:52:59+01:00
; #@! TF.GenerationSoftware,Kicad,Pcbnew,6.0.7-1.fc36
; #@! TF.FileFunction,Plated,1,2,PTH
FMAT,2
INCH
; #@! TA.AperFunction,Plated,PTH,ViaDrill
T1C0.0157
; #@! TA.AperFunction,Plated,PTH,ViaDrill
T2C0.0315
; #@! TA.AperFunction,Plated,PTH,ComponentDrill
T3C0.0394
; #@! TA.AperFunction,Plated,PTH,ComponentDrill
T4C0.0551
; #@! TA.AperFunction,Plated,PTH,ComponentDrill
T5C0.1220
%
G90
G05
T1
X2.7705Y-4.293
X2.7795Y-4.3917
X2.7854Y-2.0866
X2.7953Y-3.3307
X2.8031Y-3.5039
X2.8031Y-4.315
X2.8051Y-2.3327
X2.815Y-2.0079
X2.815Y-4.1339
X2.8189Y-3.7008
X2.82Y-3.2392
X2.821Y-4.35
X2.8228Y-2.6102
X2.8248Y-2.687
X2.8248Y-2.9232
X2.8268Y-3.9213
X2.8341Y-3.7955
X2.8346Y-3.0315
X2.8346Y-3.622
X2.8395Y-4.2849
X2.8425Y-4.0236
X2.8427Y-4.1653
X2.8445Y-2.2343
X2.8445Y-2.7854
X2.8583Y-2.6417
X2.8586Y-4.103
X2.874Y-3.7835
X3.1718Y-4.0359
X3.1732Y-2.9764
X3.1811Y-4.3622
X3.189Y-3.063
X3.189Y-4.2283
X3.2283Y-3.6772
X3.2283Y-3.811
X3.2362Y-3.2813
X3.2382Y-2.3819
X3.2403Y-2.0188
X3.2507Y-2.9505
X3.2677Y-3.0551
X3.2834Y-4.4472
X3.2835Y-4.1969
X3.2913Y-4.0315
X3.2972Y-3.9862
X3.3214Y-3.9414
X3.3307Y-4.3622
X3.3366Y-4.1142
X3.3543Y-2.8661
X3.3701Y-2.9606
X3.6772Y-5.0748
X3.69Y-4.627
X3.7402Y-5.0
X3.7559Y-4.6299
X3.8346Y-5.622
X4.0118Y-5.5394
X4.0118Y-5.6535
X4.0236Y-5.2283
X4.1801Y-5.5459
X4.1811Y-4.7717
X4.1811Y-5.1417
X4.1831Y-4.6457
X4.1929Y-5.0079
X4.2047Y-4.5906
X4.2087Y-5.6496
X4.2165Y-5.3819
X4.2205Y-5.2126
X4.2205Y-5.315
X4.2217Y-5.0347
X4.2283Y-4.8346
X4.2323Y-4.3898
X4.2386Y-5.4307
X4.2412Y-4.6795
X4.2441Y-4.7717
X4.2459Y-4.9168
X4.2609Y-5.0387
X4.2638Y-5.5157
X4.2712Y-4.4233
X4.2717Y-3.8878
X4.2717Y-3.9665
X4.3071Y-5.0236
X4.3583Y-4.3937
X4.3583Y-5.5197
X4.4094Y-3.3858
X4.4094Y-3.6614
X4.5546Y-5.7382
X4.5669Y-5.4685
X4.5704Y-5.3814
X4.5945Y-4.9252
X4.6085Y-5.0443
X4.6496Y-5.0433
X4.8622Y-3.8386
X4.9291Y-4.9528
X4.9606Y-2.2126
X5.0677Y-2.2371
X5.1102Y-3.4331
X5.1102Y-4.0079
X5.1181Y-3.7402
X5.1181Y-3.8583
X5.1181Y-4.9449
X5.1466Y-4.3942
X5.2126Y-2.2835
X5.2677Y-2.252
X5.2761Y-3.6219
X5.2953Y-4.2126
X5.315Y-2.252
X5.3622Y-2.252
X5.4094Y-2.252
X5.4134Y-3.8386
X5.4567Y-2.252
X5.5591Y-2.252
X5.6063Y-2.252
X5.7087Y-2.252
X5.7559Y-2.252
X5.8661Y-2.252
X5.9134Y-2.252
X5.9606Y-2.252
X6.0079Y-2.252
X6.122Y-4.4685
X6.3197Y-4.5323
X6.4055Y-4.4213
X6.4606Y-4.7835
X6.5276Y-4.8219
X6.6063Y-4.8346
X6.6457Y-4.8346
X6.7008Y-4.8307
T2
X2.3858Y-3.2677
X2.3858Y-3.4094
X2.3858Y-4.4331
X2.5669Y-4.252
X2.5669Y-4.4458
X2.5709Y-4.3504
X2.5748Y-3.2677
X2.5748Y-3.3622
X2.5787Y-1.8996
X2.5787Y-2.0276
X2.5787Y-2.126
X2.5787Y-3.0118
X2.5787Y-3.1102
X2.5886Y-5.7736
X2.5984Y-5.1417
X2.5984Y-5.2992
X2.5984Y-5.4724
X2.5984Y-5.6299
X2.735Y-4.1666
X2.7432Y-4.063
X2.748Y-3.4646
X2.748Y-3.5669
X2.748Y-3.6614
X2.748Y-3.8583
X2.748Y-3.9606
X2.7491Y-4.2393
X2.7493Y-3.7451
X2.7559Y-2.2244
X2.7559Y-2.3228
X2.7559Y-2.4213
X2.7559Y-2.5197
X2.7559Y-2.6181
X2.7559Y-2.7165
X2.7559Y-2.815
X2.7559Y-2.9134
X2.7638Y-4.5591
X2.7718Y-3.1841
X2.7854Y-2.9921
X2.811Y-4.9724
X2.9232Y-2.5591
X2.9244Y-3.1113
X2.9528Y-4.5591
X2.9724Y-2.9724
X2.9823Y-2.4213
X2.9843Y-4.9685
X2.9921Y-2.8346
X3.0157Y-5.1417
X3.0157Y-5.3071
X3.0157Y-5.4803
X3.0197Y-5.6457
X3.0394Y-3.1732
X3.1181Y-4.5591
X3.1516Y-4.9617
X3.189Y-1.9783
X3.189Y-3.4331
X3.189Y-3.8425
X3.189Y-3.9291
X3.1906Y-2.123
X3.1988Y-2.5591
X3.1988Y-2.6781
X3.1988Y-3.1102
X3.2441Y-4.315
X3.2913Y-4.5591
X3.3307Y-4.9685
X3.4016Y-3.9848
X3.4154Y-3.878
X3.4173Y-1.8189
X3.4173Y-1.9921
X3.4173Y-2.1654
X3.4173Y-2.5118
X3.4173Y-2.685
X3.4173Y-2.8583
X3.4173Y-3.2047
X3.4173Y-3.3701
X3.4173Y-3.5512
X3.4173Y-3.7244
X3.4173Y-4.0709
X3.4173Y-4.2441
X3.4173Y-4.4173
X3.419Y-2.3445
X3.4191Y-3.0298
X3.7992Y-3.0315
X3.811Y-2.5118
X3.811Y-2.685
X3.811Y-2.8504
X3.811Y-3.1969
X3.811Y-3.3701
X3.811Y-3.5433
X3.811Y-3.7165
X3.811Y-3.8898
X3.811Y-4.0709
X3.811Y-4.2362
X3.815Y-1.8425
X3.8175Y-1.9778
X3.8175Y-2.1274
X3.8175Y-2.3242
X3.8189Y-4.4094
X3.8189Y-4.7835
X3.8189Y-4.8819
X3.8189Y-4.9803
X3.8189Y-5.0787
X3.8189Y-5.1772
X3.8189Y-5.2756
X3.8189Y-5.374
X3.8189Y-5.4724
X3.8386Y-4.5866
X3.8386Y-4.685
X3.9646Y-3.8228
X4.0157Y-4.5669
X4.0157Y-4.685
X4.0827Y-3.8819
X4.1732Y-4.3228
X4.1929Y-4.5354
X4.315Y-5.1024
X4.3504Y-3.4646
X4.3701Y-4.937
X4.3898Y-5.8268
X4.4094Y-3.7795
X4.4094Y-4.0354
X4.4094Y-4.3307
X4.498Y-5.7067
X4.5197Y-4.5827
X4.5787Y-5.1654
X4.5906Y-2.9488
X4.9134Y-5.7795
X4.9213Y-2.8346
X4.9377Y-4.4617
X4.9449Y-4.6142
X5.1772Y-2.5
X5.3228Y-5.685
X5.5591Y-3.9055
X5.5591Y-4.0551
X5.5709Y-3.3268
X5.5709Y-3.4843
X5.7087Y-2.8346
X5.9961Y-4.6142
X6.063Y-5.1575
T3
X4.9197Y-2.652
X4.9197Y-2.752
X5.0197Y-2.652
X5.0197Y-2.752
X5.1197Y-2.652
X5.1197Y-2.752
X5.2197Y-2.652
X5.2197Y-2.752
X5.3197Y-2.652
X5.3197Y-2.752
X5.4197Y-2.652
X5.4197Y-2.752
X5.5197Y-2.652
X5.5197Y-2.752
X5.6197Y-2.652
X5.6197Y-2.752
X5.7197Y-2.652
X5.7197Y-2.752
X5.8197Y-2.652
X5.8197Y-2.752
X5.9197Y-2.652
X5.9197Y-2.752
X6.0197Y-2.652
X6.0197Y-2.752
X6.1197Y-2.652
X6.1197Y-2.752
X6.2197Y-2.652
X6.2197Y-2.752
X6.3197Y-2.652
X6.3197Y-2.752
X6.4197Y-2.652
X6.4197Y-2.752
X6.5197Y-2.652
X6.5197Y-2.752
X6.6197Y-2.652
X6.6197Y-2.752
X6.7197Y-2.652
X6.7197Y-2.752
X6.8197Y-2.652
X6.8197Y-2.752
T4
X1.939Y-2.2677
X1.939Y-2.4331
X1.939Y-2.5984
X1.939Y-2.7638
X1.939Y-2.9291
X1.939Y-3.0945
X1.939Y-3.4055
X1.939Y-3.5709
X1.939Y-3.7362
X1.939Y-3.9016
X1.939Y-4.0669
X1.939Y-4.2323
X1.939Y-4.5472
X1.939Y-4.7126
X1.939Y-4.878
X1.939Y-5.0433
X1.939Y-5.2087
X1.939Y-5.374
X2.1555Y-2.2677
X2.1555Y-2.4331
X2.1555Y-2.5984
X2.1555Y-2.7638
X2.1555Y-2.9291
X2.1555Y-3.0945
X2.1555Y-3.4055
X2.1555Y-3.5709
X2.1555Y-3.7362
X2.1555Y-3.9016
X2.1555Y-4.0669
X2.1555Y-4.2323
X2.1555Y-4.5472
X2.1555Y-4.7126
X2.1555Y-4.878
X2.1555Y-5.0433
X2.1555Y-5.2087
X2.1555Y-5.374
X4.9094Y-5.2854
X4.9094Y-5.502
X5.0748Y-5.2854
X5.0748Y-5.502
X5.2402Y-5.2854
X5.2402Y-5.502
X5.4055Y-5.2854
X5.4055Y-5.502
X6.6299Y-2.2146
X6.6299Y-2.4311
X6.6299Y-5.2854
X6.6299Y-5.502
X6.7953Y-2.2146
X6.7953Y-2.4311
X6.7953Y-5.2854
X6.7953Y-5.502
T5
X1.9685Y-1.9685
X1.9685Y-5.7087
X4.7244Y-2.7067
X4.7244Y-4.6358
X6.9882Y-1.9685
X6.9882Y-5.7087
X7.0079Y-2.7067
X7.0079Y-4.6358
T0
M30
