%TF.GenerationSoftware,KiCad,Pcbnew,6.0.7-1.fc36*%
%TF.CreationDate,2022-08-21T12:52:59+01:00*%
%TF.ProjectId,controller,636f6e74-726f-46c6-9c65-722e6b696361,rev?*%
%TF.SameCoordinates,Original*%
%TF.FileFunction,Paste,Top*%
%TF.FilePolarity,Positive*%
%FSLAX46Y46*%
G04 Gerber Fmt 4.6, Leading zero omitted, Abs format (unit mm)*
G04 Created by KiCad (PCBNEW 6.0.7-1.fc36) date 2022-08-21 12:52:59*
%MOMM*%
%LPD*%
G01*
G04 APERTURE LIST*
G04 Aperture macros list*
%AMRoundRect*
0 Rectangle with rounded corners*
0 $1 Rounding radius*
0 $2 $3 $4 $5 $6 $7 $8 $9 X,Y pos of 4 corners*
0 Add a 4 corners polygon primitive as box body*
4,1,4,$2,$3,$4,$5,$6,$7,$8,$9,$2,$3,0*
0 Add four circle primitives for the rounded corners*
1,1,$1+$1,$2,$3*
1,1,$1+$1,$4,$5*
1,1,$1+$1,$6,$7*
1,1,$1+$1,$8,$9*
0 Add four rect primitives between the rounded corners*
20,1,$1+$1,$2,$3,$4,$5,0*
20,1,$1+$1,$4,$5,$6,$7,0*
20,1,$1+$1,$6,$7,$8,$9,0*
20,1,$1+$1,$8,$9,$2,$3,0*%
G04 Aperture macros list end*
%ADD10RoundRect,0.250000X0.250000X0.475000X-0.250000X0.475000X-0.250000X-0.475000X0.250000X-0.475000X0*%
%ADD11RoundRect,0.250000X-0.250000X-0.475000X0.250000X-0.475000X0.250000X0.475000X-0.250000X0.475000X0*%
%ADD12RoundRect,0.250000X0.475000X-0.250000X0.475000X0.250000X-0.475000X0.250000X-0.475000X-0.250000X0*%
%ADD13RoundRect,0.250000X-0.262500X-0.450000X0.262500X-0.450000X0.262500X0.450000X-0.262500X0.450000X0*%
%ADD14RoundRect,0.250000X0.262500X0.450000X-0.262500X0.450000X-0.262500X-0.450000X0.262500X-0.450000X0*%
%ADD15RoundRect,0.250000X0.450000X-0.262500X0.450000X0.262500X-0.450000X0.262500X-0.450000X-0.262500X0*%
%ADD16RoundRect,0.150000X-0.825000X-0.150000X0.825000X-0.150000X0.825000X0.150000X-0.825000X0.150000X0*%
%ADD17R,1.200000X1.000000*%
%ADD18RoundRect,0.243750X0.243750X0.456250X-0.243750X0.456250X-0.243750X-0.456250X0.243750X-0.456250X0*%
%ADD19RoundRect,0.243750X-0.243750X-0.456250X0.243750X-0.456250X0.243750X0.456250X-0.243750X0.456250X0*%
%ADD20R,1.000000X1.200000*%
%ADD21RoundRect,0.250000X-0.450000X0.262500X-0.450000X-0.262500X0.450000X-0.262500X0.450000X0.262500X0*%
G04 APERTURE END LIST*
D10*
%TO.C,C1*%
X129950000Y-63500000D03*
X128050000Y-63500000D03*
%TD*%
D11*
%TO.C,C2*%
X148550000Y-130365000D03*
X150450000Y-130365000D03*
%TD*%
D12*
%TO.C,C3*%
X142000000Y-135315000D03*
X142000000Y-133415000D03*
%TD*%
D11*
%TO.C,C4*%
X161050000Y-130365000D03*
X162950000Y-130365000D03*
%TD*%
D12*
%TO.C,C5*%
X154500000Y-135315000D03*
X154500000Y-133415000D03*
%TD*%
D10*
%TO.C,C6*%
X119950000Y-102500000D03*
X118050000Y-102500000D03*
%TD*%
%TO.C,C8*%
X126450000Y-100000000D03*
X124550000Y-100000000D03*
%TD*%
%TO.C,C9*%
X119950000Y-110000000D03*
X118050000Y-110000000D03*
%TD*%
D13*
%TO.C,R1*%
X170087500Y-51500000D03*
X171912500Y-51500000D03*
%TD*%
%TO.C,R2*%
X170087500Y-129500000D03*
X171912500Y-129500000D03*
%TD*%
%TO.C,R3*%
X113587500Y-105000000D03*
X115412500Y-105000000D03*
%TD*%
%TO.C,R4*%
X118087500Y-105000000D03*
X119912500Y-105000000D03*
%TD*%
%TO.C,R5*%
X113587500Y-107500000D03*
X115412500Y-107500000D03*
%TD*%
%TO.C,R6*%
X118087500Y-107500000D03*
X119912500Y-107500000D03*
%TD*%
D14*
%TO.C,R7*%
X137412500Y-110000000D03*
X135587500Y-110000000D03*
%TD*%
%TO.C,R8*%
X132912500Y-110000000D03*
X131087500Y-110000000D03*
%TD*%
%TO.C,R9*%
X132912500Y-105000000D03*
X131087500Y-105000000D03*
%TD*%
D13*
%TO.C,R10*%
X135587500Y-105000000D03*
X137412500Y-105000000D03*
%TD*%
D15*
%TO.C,R11*%
X136500000Y-102912500D03*
X136500000Y-101087500D03*
%TD*%
%TO.C,R13*%
X131500000Y-102912500D03*
X131500000Y-101087500D03*
%TD*%
D14*
%TO.C,R23*%
X68412500Y-54000000D03*
X66587500Y-54000000D03*
%TD*%
D16*
%TO.C,U3*%
X123025000Y-102690000D03*
X123025000Y-103960000D03*
X123025000Y-105230000D03*
X123025000Y-106500000D03*
X123025000Y-107770000D03*
X123025000Y-109040000D03*
X123025000Y-110310000D03*
X127975000Y-110310000D03*
X127975000Y-109040000D03*
X127975000Y-107770000D03*
X127975000Y-106500000D03*
X127975000Y-105230000D03*
X127975000Y-103960000D03*
X127975000Y-102690000D03*
%TD*%
D15*
%TO.C,R12*%
X134000000Y-102912500D03*
X134000000Y-101087500D03*
%TD*%
D17*
%TO.C,O10*%
X95250000Y-88470000D03*
X95250000Y-85930000D03*
X88750000Y-85930000D03*
X88750000Y-88470000D03*
%TD*%
%TO.C,O9*%
X95250000Y-84070000D03*
X95250000Y-81530000D03*
X88750000Y-81530000D03*
X88750000Y-84070000D03*
%TD*%
D11*
%TO.C,C7*%
X113550000Y-102500000D03*
X115450000Y-102500000D03*
%TD*%
D16*
%TO.C,U2*%
X158025000Y-132960000D03*
X158025000Y-134230000D03*
X158025000Y-135500000D03*
X158025000Y-136770000D03*
X162975000Y-136770000D03*
X162975000Y-135500000D03*
X162975000Y-134230000D03*
X162975000Y-132960000D03*
%TD*%
D11*
%TO.C,C10*%
X113550000Y-110000000D03*
X115450000Y-110000000D03*
%TD*%
%TO.C,C11*%
X131050000Y-112500000D03*
X132950000Y-112500000D03*
%TD*%
%TO.C,C12*%
X131050000Y-107500000D03*
X132950000Y-107500000D03*
%TD*%
D12*
%TO.C,C13*%
X139000000Y-102950000D03*
X139000000Y-101050000D03*
%TD*%
D11*
%TO.C,C14*%
X75550000Y-65000000D03*
X77450000Y-65000000D03*
%TD*%
%TO.C,C15*%
X75587500Y-79000000D03*
X77487500Y-79000000D03*
%TD*%
%TO.C,C16*%
X75550000Y-109500000D03*
X77450000Y-109500000D03*
%TD*%
%TO.C,C19*%
X110550000Y-129500000D03*
X112450000Y-129500000D03*
%TD*%
D10*
%TO.C,C20*%
X119950000Y-88000000D03*
X118050000Y-88000000D03*
%TD*%
D11*
%TO.C,C21*%
X113550000Y-88000000D03*
X115450000Y-88000000D03*
%TD*%
D10*
%TO.C,C22*%
X126450000Y-85500000D03*
X124550000Y-85500000D03*
%TD*%
%TO.C,C23*%
X119950000Y-95500000D03*
X118050000Y-95500000D03*
%TD*%
D11*
%TO.C,C24*%
X113550000Y-95500000D03*
X115450000Y-95500000D03*
%TD*%
%TO.C,C25*%
X131050000Y-98000000D03*
X132950000Y-98000000D03*
%TD*%
%TO.C,C26*%
X131050000Y-93000000D03*
X132950000Y-93000000D03*
%TD*%
D12*
%TO.C,C27*%
X139000000Y-88450000D03*
X139000000Y-86550000D03*
%TD*%
D18*
%TO.C,LD1*%
X167937500Y-51500000D03*
X166062500Y-51500000D03*
%TD*%
%TO.C,LD2*%
X167937500Y-129500000D03*
X166062500Y-129500000D03*
%TD*%
%TO.C,LD3*%
X63937500Y-56500000D03*
X62062500Y-56500000D03*
%TD*%
%TO.C,LD4*%
X63937500Y-59000000D03*
X62062500Y-59000000D03*
%TD*%
%TO.C,LD10*%
X63912500Y-74000000D03*
X62037500Y-74000000D03*
%TD*%
D19*
%TO.C,LD19*%
X103237500Y-121400000D03*
X105112500Y-121400000D03*
%TD*%
%TO.C,LD20*%
X103237500Y-123900000D03*
X105112500Y-123900000D03*
%TD*%
%TO.C,LD21*%
X103237500Y-126400000D03*
X105112500Y-126400000D03*
%TD*%
%TO.C,LD23*%
X103262500Y-131400000D03*
X105137500Y-131400000D03*
%TD*%
%TO.C,LD24*%
X103262500Y-133900000D03*
X105137500Y-133900000D03*
%TD*%
%TO.C,LD25*%
X103262500Y-136400000D03*
X105137500Y-136400000D03*
%TD*%
%TO.C,LD26*%
X103237500Y-138900000D03*
X105112500Y-138900000D03*
%TD*%
D17*
%TO.C,O13*%
X95250000Y-114870000D03*
X95250000Y-112330000D03*
X88750000Y-112330000D03*
X88750000Y-114870000D03*
%TD*%
%TO.C,O14*%
X95250000Y-110470000D03*
X95250000Y-107930000D03*
X88750000Y-107930000D03*
X88750000Y-110470000D03*
%TD*%
%TO.C,O16*%
X95250000Y-101670000D03*
X95250000Y-99130000D03*
X88750000Y-99130000D03*
X88750000Y-101670000D03*
%TD*%
D20*
%TO.C,O17*%
X86670000Y-117950000D03*
X84130000Y-117950000D03*
X84130000Y-124450000D03*
X86670000Y-124450000D03*
%TD*%
%TO.C,O19*%
X77870000Y-117950000D03*
X75330000Y-117950000D03*
X75330000Y-124450000D03*
X77870000Y-124450000D03*
%TD*%
%TO.C,O20*%
X73470000Y-117950000D03*
X70930000Y-117950000D03*
X70930000Y-124450000D03*
X73470000Y-124450000D03*
%TD*%
D17*
%TO.C,O21*%
X68350000Y-128330000D03*
X68350000Y-130870000D03*
X74850000Y-130870000D03*
X74850000Y-128330000D03*
%TD*%
%TO.C,O23*%
X68350000Y-137130000D03*
X68350000Y-139670000D03*
X74850000Y-139670000D03*
X74850000Y-137130000D03*
%TD*%
D14*
%TO.C,R26*%
X68412500Y-51500000D03*
X66587500Y-51500000D03*
%TD*%
%TO.C,R28*%
X68412500Y-76500000D03*
X66587500Y-76500000D03*
%TD*%
%TO.C,R30*%
X68412500Y-79000000D03*
X66587500Y-79000000D03*
%TD*%
D13*
%TO.C,R34*%
X66587500Y-64000000D03*
X68412500Y-64000000D03*
%TD*%
%TO.C,R35*%
X66587500Y-66500000D03*
X68412500Y-66500000D03*
%TD*%
%TO.C,R36*%
X66587500Y-69000000D03*
X68412500Y-69000000D03*
%TD*%
%TO.C,R37*%
X66587500Y-71500000D03*
X68412500Y-71500000D03*
%TD*%
%TO.C,R38*%
X66587500Y-74000000D03*
X68412500Y-74000000D03*
%TD*%
D21*
%TO.C,R39*%
X98500000Y-81887500D03*
X98500000Y-83712500D03*
%TD*%
%TO.C,R40*%
X98500000Y-86287500D03*
X98500000Y-88112500D03*
%TD*%
%TO.C,R41*%
X98500000Y-90687500D03*
X98500000Y-92512500D03*
%TD*%
%TO.C,R42*%
X98400000Y-94887500D03*
X98400000Y-96712500D03*
%TD*%
D14*
%TO.C,R43*%
X100512500Y-112600000D03*
X98687500Y-112600000D03*
%TD*%
D21*
%TO.C,R44*%
X98500000Y-108287500D03*
X98500000Y-110112500D03*
%TD*%
%TO.C,R45*%
X98500000Y-103887500D03*
X98500000Y-105712500D03*
%TD*%
%TO.C,R46*%
X98500000Y-99487500D03*
X98500000Y-101312500D03*
%TD*%
D14*
%TO.C,R47*%
X68412500Y-85500000D03*
X66587500Y-85500000D03*
%TD*%
%TO.C,R48*%
X63912500Y-85500000D03*
X62087500Y-85500000D03*
%TD*%
%TO.C,R49*%
X63912500Y-83000000D03*
X62087500Y-83000000D03*
%TD*%
%TO.C,R50*%
X68412500Y-83000000D03*
X66587500Y-83000000D03*
%TD*%
%TO.C,R51*%
X68412500Y-108000000D03*
X66587500Y-108000000D03*
%TD*%
D13*
%TO.C,R52*%
X62087500Y-108000000D03*
X63912500Y-108000000D03*
%TD*%
D14*
%TO.C,R53*%
X68412500Y-110500000D03*
X66587500Y-110500000D03*
%TD*%
D13*
%TO.C,R63*%
X62087500Y-120000000D03*
X63912500Y-120000000D03*
%TD*%
%TO.C,R64*%
X62087500Y-122500000D03*
X63912500Y-122500000D03*
%TD*%
%TO.C,R65*%
X62087500Y-125000000D03*
X63912500Y-125000000D03*
%TD*%
%TO.C,R68*%
X62087500Y-132500000D03*
X63912500Y-132500000D03*
%TD*%
%TO.C,R69*%
X62087500Y-135000000D03*
X63912500Y-135000000D03*
%TD*%
%TO.C,R70*%
X62087500Y-137500000D03*
X63912500Y-137500000D03*
%TD*%
D14*
%TO.C,R71*%
X105087500Y-118900000D03*
X103262500Y-118900000D03*
%TD*%
%TO.C,R73*%
X105087500Y-116400000D03*
X103262500Y-116400000D03*
%TD*%
%TO.C,R74*%
X100587500Y-116400000D03*
X98762500Y-116400000D03*
%TD*%
%TO.C,R75*%
X105087500Y-141400000D03*
X103262500Y-141400000D03*
%TD*%
%TO.C,R76*%
X100587500Y-141400000D03*
X98762500Y-141400000D03*
%TD*%
%TO.C,R77*%
X105087500Y-143900000D03*
X103262500Y-143900000D03*
%TD*%
%TO.C,R78*%
X100587500Y-143900000D03*
X98762500Y-143900000D03*
%TD*%
%TO.C,R79*%
X100587500Y-121400000D03*
X98762500Y-121400000D03*
%TD*%
%TO.C,R80*%
X100587500Y-123900000D03*
X98762500Y-123900000D03*
%TD*%
%TO.C,R81*%
X100587500Y-126400000D03*
X98762500Y-126400000D03*
%TD*%
%TO.C,R82*%
X100587500Y-128900000D03*
X98762500Y-128900000D03*
%TD*%
%TO.C,R83*%
X100587500Y-131400000D03*
X98762500Y-131400000D03*
%TD*%
%TO.C,R84*%
X100587500Y-133900000D03*
X98762500Y-133900000D03*
%TD*%
D13*
%TO.C,R88*%
X118087500Y-90500000D03*
X119912500Y-90500000D03*
%TD*%
%TO.C,R89*%
X113587500Y-93000000D03*
X115412500Y-93000000D03*
%TD*%
%TO.C,R90*%
X118087500Y-93000000D03*
X119912500Y-93000000D03*
%TD*%
D14*
%TO.C,R91*%
X137412500Y-95500000D03*
X135587500Y-95500000D03*
%TD*%
%TO.C,R92*%
X132912500Y-95500000D03*
X131087500Y-95500000D03*
%TD*%
%TO.C,R93*%
X132912500Y-90500000D03*
X131087500Y-90500000D03*
%TD*%
D13*
%TO.C,R94*%
X135587500Y-90500000D03*
X137412500Y-90500000D03*
%TD*%
D15*
%TO.C,R95*%
X136500000Y-88412500D03*
X136500000Y-86587500D03*
%TD*%
%TO.C,R96*%
X134000000Y-88412500D03*
X134000000Y-86587500D03*
%TD*%
%TO.C,R97*%
X131500000Y-88412500D03*
X131500000Y-86587500D03*
%TD*%
D21*
%TO.C,R98*%
X124550000Y-127337500D03*
X124550000Y-129162500D03*
%TD*%
D16*
%TO.C,U5*%
X74025000Y-68190000D03*
X74025000Y-69460000D03*
X74025000Y-70730000D03*
X74025000Y-72000000D03*
X74025000Y-73270000D03*
X74025000Y-74540000D03*
X74025000Y-75810000D03*
X78975000Y-75810000D03*
X78975000Y-74540000D03*
X78975000Y-73270000D03*
X78975000Y-72000000D03*
X78975000Y-70730000D03*
X78975000Y-69460000D03*
X78975000Y-68190000D03*
%TD*%
%TO.C,U6*%
X74025000Y-87190000D03*
X74025000Y-88460000D03*
X74025000Y-89730000D03*
X74025000Y-91000000D03*
X74025000Y-92270000D03*
X74025000Y-93540000D03*
X74025000Y-94810000D03*
X78975000Y-94810000D03*
X78975000Y-93540000D03*
X78975000Y-92270000D03*
X78975000Y-91000000D03*
X78975000Y-89730000D03*
X78975000Y-88460000D03*
X78975000Y-87190000D03*
%TD*%
%TO.C,U7*%
X74050000Y-99690000D03*
X74050000Y-100960000D03*
X74050000Y-102230000D03*
X74050000Y-103500000D03*
X74050000Y-104770000D03*
X74050000Y-106040000D03*
X74050000Y-107310000D03*
X79000000Y-107310000D03*
X79000000Y-106040000D03*
X79000000Y-104770000D03*
X79000000Y-103500000D03*
X79000000Y-102230000D03*
X79000000Y-100960000D03*
X79000000Y-99690000D03*
%TD*%
%TO.C,U8*%
X109400000Y-117590000D03*
X109400000Y-118860000D03*
X109400000Y-120130000D03*
X109400000Y-121400000D03*
X109400000Y-122670000D03*
X109400000Y-123940000D03*
X109400000Y-125210000D03*
X114350000Y-125210000D03*
X114350000Y-123940000D03*
X114350000Y-122670000D03*
X114350000Y-121400000D03*
X114350000Y-120130000D03*
X114350000Y-118860000D03*
X114350000Y-117590000D03*
%TD*%
%TO.C,U10*%
X123025000Y-88190000D03*
X123025000Y-89460000D03*
X123025000Y-90730000D03*
X123025000Y-92000000D03*
X123025000Y-93270000D03*
X123025000Y-94540000D03*
X123025000Y-95810000D03*
X127975000Y-95810000D03*
X127975000Y-94540000D03*
X127975000Y-93270000D03*
X127975000Y-92000000D03*
X127975000Y-90730000D03*
X127975000Y-89460000D03*
X127975000Y-88190000D03*
%TD*%
D17*
%TO.C,O11*%
X95250000Y-92870000D03*
X95250000Y-90330000D03*
X88750000Y-90330000D03*
X88750000Y-92870000D03*
%TD*%
D16*
%TO.C,U4*%
X74025000Y-54190000D03*
X74025000Y-55460000D03*
X74025000Y-56730000D03*
X74025000Y-58000000D03*
X74025000Y-59270000D03*
X74025000Y-60540000D03*
X74025000Y-61810000D03*
X78975000Y-61810000D03*
X78975000Y-60540000D03*
X78975000Y-59270000D03*
X78975000Y-58000000D03*
X78975000Y-56730000D03*
X78975000Y-55460000D03*
X78975000Y-54190000D03*
%TD*%
D13*
%TO.C,R32*%
X66587500Y-59000000D03*
X68412500Y-59000000D03*
%TD*%
%TO.C,R33*%
X66587500Y-61500000D03*
X68412500Y-61500000D03*
%TD*%
%TO.C,R31*%
X66587500Y-56500000D03*
X68412500Y-56500000D03*
%TD*%
D17*
%TO.C,O5*%
X95250000Y-66470000D03*
X95250000Y-63930000D03*
X88750000Y-63930000D03*
X88750000Y-66470000D03*
%TD*%
%TO.C,O6*%
X95250000Y-70870000D03*
X95250000Y-68330000D03*
X88750000Y-68330000D03*
X88750000Y-70870000D03*
%TD*%
%TO.C,O7*%
X95250000Y-75270000D03*
X95250000Y-72730000D03*
X88750000Y-72730000D03*
X88750000Y-75270000D03*
%TD*%
%TO.C,O8*%
X95250000Y-79670000D03*
X95250000Y-77130000D03*
X88750000Y-77130000D03*
X88750000Y-79670000D03*
%TD*%
D21*
%TO.C,R19*%
X98500000Y-64287500D03*
X98500000Y-66112500D03*
%TD*%
%TO.C,R20*%
X98500000Y-68687500D03*
X98500000Y-70512500D03*
%TD*%
%TO.C,R21*%
X98500000Y-73087500D03*
X98500000Y-74912500D03*
%TD*%
%TO.C,R22*%
X98500000Y-77487500D03*
X98500000Y-79312500D03*
%TD*%
D14*
%TO.C,R24*%
X63912500Y-51500000D03*
X62087500Y-51500000D03*
%TD*%
%TO.C,R25*%
X63912500Y-54000000D03*
X62087500Y-54000000D03*
%TD*%
D13*
%TO.C,R27*%
X62087500Y-76500000D03*
X63912500Y-76500000D03*
%TD*%
%TO.C,R29*%
X62087500Y-79000000D03*
X63912500Y-79000000D03*
%TD*%
D18*
%TO.C,LD8*%
X63937500Y-69000000D03*
X62062500Y-69000000D03*
%TD*%
%TO.C,LD7*%
X63912500Y-66500000D03*
X62037500Y-66500000D03*
%TD*%
%TO.C,LD6*%
X63912500Y-64000000D03*
X62037500Y-64000000D03*
%TD*%
%TO.C,LD9*%
X63962500Y-71500000D03*
X62087500Y-71500000D03*
%TD*%
%TO.C,LD5*%
X63937500Y-61500000D03*
X62062500Y-61500000D03*
%TD*%
D17*
%TO.C,O12*%
X95250000Y-97270000D03*
X95250000Y-94730000D03*
X88750000Y-94730000D03*
X88750000Y-97270000D03*
%TD*%
%TO.C,O15*%
X95250000Y-106070000D03*
X95250000Y-103530000D03*
X88750000Y-103530000D03*
X88750000Y-106070000D03*
%TD*%
D20*
%TO.C,O18*%
X82270000Y-117950000D03*
X79730000Y-117950000D03*
X79730000Y-124450000D03*
X82270000Y-124450000D03*
%TD*%
D17*
%TO.C,O22*%
X68350000Y-132730000D03*
X68350000Y-135270000D03*
X74850000Y-135270000D03*
X74850000Y-132730000D03*
%TD*%
%TO.C,O24*%
X68350000Y-141330000D03*
X68350000Y-143870000D03*
X74850000Y-143870000D03*
X74850000Y-141330000D03*
%TD*%
%TO.C,O1*%
X95250000Y-48870000D03*
X95250000Y-46330000D03*
X88750000Y-46330000D03*
X88750000Y-48870000D03*
%TD*%
%TO.C,O2*%
X95250000Y-53270000D03*
X95250000Y-50730000D03*
X88750000Y-50730000D03*
X88750000Y-53270000D03*
%TD*%
%TO.C,O3*%
X95250000Y-57670000D03*
X95250000Y-55130000D03*
X88750000Y-55130000D03*
X88750000Y-57670000D03*
%TD*%
%TO.C,O4*%
X95250000Y-62070000D03*
X95250000Y-59530000D03*
X88750000Y-59530000D03*
X88750000Y-62070000D03*
%TD*%
D21*
%TO.C,R15*%
X98500000Y-46687500D03*
X98500000Y-48512500D03*
%TD*%
%TO.C,R16*%
X98500000Y-51087500D03*
X98500000Y-52912500D03*
%TD*%
%TO.C,R17*%
X98500000Y-55487500D03*
X98500000Y-57312500D03*
%TD*%
%TO.C,R18*%
X98500000Y-59887500D03*
X98500000Y-61712500D03*
%TD*%
D18*
%TO.C,LD12*%
X63937500Y-90500000D03*
X62062500Y-90500000D03*
%TD*%
%TO.C,LD13*%
X63937500Y-93000000D03*
X62062500Y-93000000D03*
%TD*%
%TO.C,LD14*%
X63912500Y-95500000D03*
X62037500Y-95500000D03*
%TD*%
%TO.C,LD15*%
X63937500Y-98000000D03*
X62062500Y-98000000D03*
%TD*%
%TO.C,LD16*%
X63937500Y-100500000D03*
X62062500Y-100500000D03*
%TD*%
%TO.C,LD17*%
X63937500Y-103000000D03*
X62062500Y-103000000D03*
%TD*%
%TO.C,LD18*%
X63937500Y-105500000D03*
X62062500Y-105500000D03*
%TD*%
D13*
%TO.C,R55*%
X66587500Y-88000000D03*
X68412500Y-88000000D03*
%TD*%
%TO.C,R57*%
X66587500Y-93000000D03*
X68412500Y-93000000D03*
%TD*%
%TO.C,R58*%
X66587500Y-95500000D03*
X68412500Y-95500000D03*
%TD*%
%TO.C,R59*%
X66587500Y-98000000D03*
X68412500Y-98000000D03*
%TD*%
%TO.C,R60*%
X66587500Y-100500000D03*
X68412500Y-100500000D03*
%TD*%
%TO.C,R61*%
X66587500Y-103000000D03*
X68412500Y-103000000D03*
%TD*%
%TO.C,R62*%
X66587500Y-105500000D03*
X68412500Y-105500000D03*
%TD*%
D18*
%TO.C,LD11*%
X63937500Y-88000000D03*
X62062500Y-88000000D03*
%TD*%
D13*
%TO.C,R56*%
X66587500Y-90500000D03*
X68412500Y-90500000D03*
%TD*%
D11*
%TO.C,C17*%
X75550000Y-97500000D03*
X77450000Y-97500000D03*
%TD*%
D13*
%TO.C,R54*%
X62087500Y-110500000D03*
X63912500Y-110500000D03*
%TD*%
D11*
%TO.C,C18*%
X110925000Y-115500000D03*
X112825000Y-115500000D03*
%TD*%
D13*
%TO.C,R66*%
X62087500Y-127500000D03*
X63912500Y-127500000D03*
%TD*%
%TO.C,R67*%
X62087500Y-130000000D03*
X63912500Y-130000000D03*
%TD*%
D16*
%TO.C,U9*%
X109400000Y-131590000D03*
X109400000Y-132860000D03*
X109400000Y-134130000D03*
X109400000Y-135400000D03*
X109400000Y-136670000D03*
X109400000Y-137940000D03*
X109400000Y-139210000D03*
X114350000Y-139210000D03*
X114350000Y-137940000D03*
X114350000Y-136670000D03*
X114350000Y-135400000D03*
X114350000Y-134130000D03*
X114350000Y-132860000D03*
X114350000Y-131590000D03*
%TD*%
D19*
%TO.C,LD22*%
X103237500Y-128900000D03*
X105112500Y-128900000D03*
%TD*%
D14*
%TO.C,R85*%
X100587500Y-136400000D03*
X98762500Y-136400000D03*
%TD*%
%TO.C,R86*%
X100587500Y-138900000D03*
X98762500Y-138900000D03*
%TD*%
D13*
%TO.C,R87*%
X113587500Y-90500000D03*
X115412500Y-90500000D03*
%TD*%
D14*
%TO.C,R72*%
X100587500Y-118900000D03*
X98762500Y-118900000D03*
%TD*%
D16*
%TO.C,U1*%
X145525000Y-132960000D03*
X145525000Y-134230000D03*
X145525000Y-135500000D03*
X145525000Y-136770000D03*
X150475000Y-136770000D03*
X150475000Y-135500000D03*
X150475000Y-134230000D03*
X150475000Y-132960000D03*
%TD*%
D21*
%TO.C,R14*%
X129050000Y-127337500D03*
X129050000Y-129162500D03*
%TD*%
M02*
