%TF.GenerationSoftware,KiCad,Pcbnew,6.0.7-1.fc36*%
%TF.CreationDate,2022-08-21T12:52:59+01:00*%
%TF.ProjectId,controller,636f6e74-726f-46c6-9c65-722e6b696361,rev?*%
%TF.SameCoordinates,Original*%
%TF.FileFunction,Legend,Bot*%
%TF.FilePolarity,Positive*%
%FSLAX46Y46*%
G04 Gerber Fmt 4.6, Leading zero omitted, Abs format (unit mm)*
G04 Created by KiCad (PCBNEW 6.0.7-1.fc36) date 2022-08-21 12:52:59*
%MOMM*%
%LPD*%
G01*
G04 APERTURE LIST*
G04 Aperture macros list*
%AMRoundRect*
0 Rectangle with rounded corners*
0 $1 Rounding radius*
0 $2 $3 $4 $5 $6 $7 $8 $9 X,Y pos of 4 corners*
0 Add a 4 corners polygon primitive as box body*
4,1,4,$2,$3,$4,$5,$6,$7,$8,$9,$2,$3,0*
0 Add four circle primitives for the rounded corners*
1,1,$1+$1,$2,$3*
1,1,$1+$1,$4,$5*
1,1,$1+$1,$6,$7*
1,1,$1+$1,$8,$9*
0 Add four rect primitives between the rounded corners*
20,1,$1+$1,$2,$3,$4,$5,0*
20,1,$1+$1,$4,$5,$6,$7,0*
20,1,$1+$1,$6,$7,$8,$9,0*
20,1,$1+$1,$8,$9,$2,$3,0*%
G04 Aperture macros list end*
%ADD10RoundRect,0.625000X-0.625000X-1.125000X0.625000X-1.125000X0.625000X1.125000X-0.625000X1.125000X0*%
%ADD11C,7.000000*%
%ADD12C,1.800000*%
%ADD13RoundRect,0.625000X-1.125000X0.625000X-1.125000X-0.625000X1.125000X-0.625000X1.125000X0.625000X0*%
%ADD14C,6.500000*%
%ADD15C,1.200000*%
%ADD16C,0.800000*%
G04 APERTURE END LIST*
%LPC*%
D10*
%TO.C,J1*%
X168400000Y-56250000D03*
X168400000Y-61750000D03*
X172600000Y-56250000D03*
X172600000Y-61750000D03*
%TD*%
%TO.C,J8*%
X168400000Y-134250000D03*
X168400000Y-139750000D03*
X172600000Y-134250000D03*
X172600000Y-139750000D03*
%TD*%
%TO.C,J10*%
X124700000Y-134250000D03*
X124700000Y-139750000D03*
X128900000Y-134250000D03*
X128900000Y-139750000D03*
X133100000Y-134250000D03*
X133100000Y-139750000D03*
X137300000Y-134250000D03*
X137300000Y-139750000D03*
%TD*%
D11*
%TO.C,U11*%
X120000000Y-68750000D03*
X178000000Y-117750000D03*
X178000000Y-68750000D03*
X120000000Y-117750000D03*
D12*
X124960000Y-69900000D03*
X124960000Y-67360000D03*
X127500000Y-69900000D03*
X127500000Y-67360000D03*
X130040000Y-69900000D03*
X130040000Y-67360000D03*
X132580000Y-69900000D03*
X132580000Y-67360000D03*
X135120000Y-69900000D03*
X135120000Y-67360000D03*
X137660000Y-69900000D03*
X137660000Y-67360000D03*
X140200000Y-69900000D03*
X140200000Y-67360000D03*
X142740000Y-69900000D03*
X142740000Y-67360000D03*
X145280000Y-69900000D03*
X145280000Y-67360000D03*
X147820000Y-69900000D03*
X147820000Y-67360000D03*
X150360000Y-69900000D03*
X150360000Y-67360000D03*
X152900000Y-69900000D03*
X152900000Y-67360000D03*
X155440000Y-69900000D03*
X155440000Y-67360000D03*
X157980000Y-69900000D03*
X157980000Y-67360000D03*
X160520000Y-69900000D03*
X160520000Y-67360000D03*
X163060000Y-69900000D03*
X163060000Y-67360000D03*
X165600000Y-69900000D03*
X165600000Y-67360000D03*
X168140000Y-69900000D03*
X168140000Y-67360000D03*
X170680000Y-69900000D03*
X170680000Y-67360000D03*
X173220000Y-69900000D03*
X173220000Y-67360000D03*
%TD*%
D13*
%TO.C,J2*%
X54750000Y-57600000D03*
X49250000Y-57600000D03*
X54750000Y-61800000D03*
X49250000Y-61800000D03*
X54750000Y-66000000D03*
X49250000Y-66000000D03*
X54750000Y-70200000D03*
X49250000Y-70200000D03*
X54750000Y-74400000D03*
X49250000Y-74400000D03*
X54750000Y-78600000D03*
X49250000Y-78600000D03*
%TD*%
%TO.C,J3*%
X54750000Y-86500000D03*
X49250000Y-86500000D03*
X54750000Y-90700000D03*
X49250000Y-90700000D03*
X54750000Y-94900000D03*
X49250000Y-94900000D03*
X54750000Y-99100000D03*
X49250000Y-99100000D03*
X54750000Y-103300000D03*
X49250000Y-103300000D03*
X54750000Y-107500000D03*
X49250000Y-107500000D03*
%TD*%
%TO.C,J4*%
X54750000Y-115500000D03*
X49250000Y-115500000D03*
X54750000Y-119700000D03*
X49250000Y-119700000D03*
X54750000Y-123900000D03*
X49250000Y-123900000D03*
X54750000Y-128100000D03*
X49250000Y-128100000D03*
X54750000Y-132300000D03*
X49250000Y-132300000D03*
X54750000Y-136500000D03*
X49250000Y-136500000D03*
%TD*%
D14*
%TO.C,F3*%
X177500000Y-145000000D03*
%TD*%
%TO.C,F4*%
X50000000Y-50000000D03*
%TD*%
%TO.C,F2*%
X50000000Y-145000000D03*
%TD*%
%TO.C,F1*%
X177500000Y-50000000D03*
%TD*%
D15*
X106000000Y-109800000D03*
X106500000Y-115200000D03*
X96800000Y-72400000D03*
X96800000Y-85600000D03*
X97000000Y-134000000D03*
X71400000Y-126300000D03*
X96800000Y-94400000D03*
X97000000Y-129000000D03*
X96965142Y-50235061D03*
X96965142Y-54035061D03*
X97000000Y-121500000D03*
X97000000Y-124000000D03*
X96800000Y-90000000D03*
X103700000Y-98600000D03*
X100700000Y-97100000D03*
X96500000Y-77000000D03*
X96900498Y-46800000D03*
X96965142Y-59035061D03*
X97000000Y-136500000D03*
X76600000Y-139200000D03*
X96800000Y-63800000D03*
X80050693Y-126025999D03*
X76700000Y-143400000D03*
X97000000Y-131500000D03*
X96800000Y-98800000D03*
X97000000Y-139000000D03*
X96800000Y-103400000D03*
X84600000Y-126200000D03*
X97000000Y-126500000D03*
X76600000Y-134800000D03*
X96800000Y-107600000D03*
X75800000Y-126200000D03*
X96800000Y-81200000D03*
X109600000Y-129600000D03*
X97000000Y-112000000D03*
X111000000Y-125400000D03*
X96800000Y-68200000D03*
X131500000Y-63500000D03*
X76600000Y-130600000D03*
X65500000Y-51500000D03*
X65500000Y-48250000D03*
X65500000Y-54000000D03*
X81000000Y-87200000D03*
X81000000Y-50250000D03*
X65300000Y-110500000D03*
X65200000Y-108000000D03*
X60600000Y-86600000D03*
X77200000Y-80600000D03*
X81000000Y-99800000D03*
X65400000Y-83000000D03*
X81250000Y-65000000D03*
X81042143Y-53924500D03*
X81000000Y-97600000D03*
X65500000Y-79000000D03*
X65400000Y-85400000D03*
X65750000Y-146650000D03*
X60600000Y-83000000D03*
X81250000Y-68024500D03*
X81250000Y-79000000D03*
X65500000Y-76500000D03*
X60600000Y-112600000D03*
X65200000Y-112924500D03*
X82400000Y-109600000D03*
X135200000Y-144400000D03*
D16*
X81000000Y-77800000D03*
X80600000Y-75600000D03*
D15*
X70000000Y-59000000D03*
X69800000Y-90600000D03*
X141200000Y-99200000D03*
X69800000Y-98000000D03*
X124800000Y-146800000D03*
X66000000Y-130600000D03*
X86800000Y-94600000D03*
X70200000Y-115800000D03*
X74250000Y-65000000D03*
X86800000Y-81400000D03*
X83600000Y-115800000D03*
X66000000Y-134600000D03*
X70750000Y-76000000D03*
X86800000Y-68200000D03*
X75750000Y-61500000D03*
X86800000Y-72600000D03*
X86800000Y-85600000D03*
X86800000Y-63800000D03*
X70000000Y-61500000D03*
X112000000Y-96000000D03*
X69825999Y-107679463D03*
X69800000Y-93000000D03*
X86750000Y-98500000D03*
X86800000Y-90200000D03*
X76000000Y-72000000D03*
X86800000Y-55000000D03*
X141500000Y-88500000D03*
X69676498Y-103200628D03*
X69467952Y-105830463D03*
X70000000Y-69000000D03*
X141200000Y-103000000D03*
X70000000Y-56500000D03*
X74279849Y-79027593D03*
X70000000Y-71500000D03*
X112000000Y-102500000D03*
X75500000Y-75500000D03*
X69832068Y-95124500D03*
X66000000Y-143000000D03*
X112000000Y-110000000D03*
X86800000Y-107800000D03*
X70000000Y-66500000D03*
X70000000Y-64000000D03*
X86800000Y-50600000D03*
X86844436Y-76956995D03*
X86800000Y-112200000D03*
X69800000Y-100600000D03*
X75000000Y-115800000D03*
X79200000Y-115800000D03*
X86800000Y-46200000D03*
X70403373Y-80875500D03*
X86842001Y-59549500D03*
X66000000Y-139000000D03*
X70000000Y-74000000D03*
X86399631Y-101212991D03*
X86800000Y-103400000D03*
X111500000Y-148000000D03*
X69800000Y-88000000D03*
X141500000Y-84500000D03*
X110500000Y-88000000D03*
X152300000Y-117200000D03*
X125416527Y-113325999D03*
X125600000Y-117200000D03*
X154000000Y-131000000D03*
D16*
X130724500Y-111612751D03*
X134500000Y-107000000D03*
D15*
X97500000Y-116500000D03*
X114800000Y-116400000D03*
X97500000Y-119000000D03*
X145000000Y-72000000D03*
X114250055Y-144950999D03*
X102000000Y-116000000D03*
X116300000Y-131200000D03*
X125000000Y-72000000D03*
X102000000Y-119000000D03*
X116600000Y-74900000D03*
D16*
X112000000Y-86000000D03*
X112000000Y-93000000D03*
X137500000Y-97500000D03*
X123500000Y-97500000D03*
X130000000Y-98000000D03*
X134013408Y-91995124D03*
X130000000Y-95000000D03*
X71600000Y-94000000D03*
X71986643Y-96405937D03*
X108500000Y-98750000D03*
X84362701Y-100112701D03*
X80562930Y-102511188D03*
X71500000Y-105000000D03*
X80800000Y-110800000D03*
X81000000Y-107400000D03*
X72124500Y-108835715D03*
X83750000Y-101250000D03*
X108500000Y-100750000D03*
X72204966Y-105798644D03*
X107500000Y-111500000D03*
X107725999Y-118860000D03*
X155500000Y-113500000D03*
X107800000Y-121200000D03*
X160520000Y-115120000D03*
X108488467Y-112350999D03*
X110700000Y-111600000D03*
X107845707Y-124887131D03*
X162700000Y-112300000D03*
X116700000Y-125100000D03*
X117055603Y-128124500D03*
X164100000Y-121500000D03*
X107231439Y-127881177D03*
X107200000Y-132400000D03*
X165800427Y-122475500D03*
X167800000Y-122800000D03*
X108225801Y-127982410D03*
X107200000Y-135000000D03*
X168800000Y-122800000D03*
X109400000Y-127600000D03*
X107660000Y-137940000D03*
X110700000Y-140200000D03*
X116000000Y-138900000D03*
X108300000Y-140100000D03*
X118100000Y-128100000D03*
X170200000Y-122700000D03*
X71500000Y-51000000D03*
X72250000Y-56750000D03*
X71250000Y-59250000D03*
X70750000Y-53000000D03*
X82249500Y-60500000D03*
X82304582Y-51276498D03*
X71700000Y-66300000D03*
X71750000Y-74250000D03*
X71750000Y-68250000D03*
X72600000Y-67100000D03*
X72000000Y-77000000D03*
X72250000Y-70750000D03*
X85200000Y-72800000D03*
X85600000Y-75200000D03*
X82568997Y-74942934D03*
X82999000Y-77600000D03*
X71200000Y-89000000D03*
X71000000Y-84600000D03*
X73000000Y-96100000D03*
X71629107Y-82275500D03*
X72000000Y-92000000D03*
X82000000Y-96800000D03*
X82200000Y-83345500D03*
X82000000Y-93400000D03*
X70600000Y-111550000D03*
X70371429Y-109041005D03*
X71800000Y-99600000D03*
X72200000Y-102200000D03*
X71200000Y-109600000D03*
X84750000Y-104500000D03*
X72609156Y-104216230D03*
X84600000Y-110800000D03*
X71653000Y-110490953D03*
X83400000Y-106600000D03*
X83399500Y-112958047D03*
X83600000Y-102400000D03*
X106200000Y-121200000D03*
X95000000Y-127000000D03*
X95400000Y-117600000D03*
X106250000Y-118000000D03*
X107400000Y-122800000D03*
X106800000Y-116600000D03*
X106500000Y-127200000D03*
X93725000Y-117525000D03*
X93400000Y-128900000D03*
X106175500Y-140866249D03*
X106200000Y-130600000D03*
X102200000Y-132800000D03*
X101900000Y-140700000D03*
X107100000Y-136700000D03*
X106900000Y-143500000D03*
X97400000Y-142800000D03*
X115686451Y-145749502D03*
X101900000Y-143600000D03*
X116087701Y-136687701D03*
X152600000Y-57200000D03*
X151400000Y-57200000D03*
X150200000Y-57200000D03*
X149000000Y-57200000D03*
X146200000Y-57200000D03*
X145000000Y-57200000D03*
X142400000Y-57200000D03*
X141200000Y-57200000D03*
X138600000Y-57200000D03*
X137400000Y-57200000D03*
X136200000Y-57200000D03*
X135000000Y-57200000D03*
X132400000Y-58000000D03*
X133800000Y-57200000D03*
X128719358Y-56823502D03*
X126000000Y-56200000D03*
X129800000Y-101800000D03*
X130000000Y-125600000D03*
X129800000Y-87200000D03*
X125200000Y-125800000D03*
M02*
